<svg id="visual" viewBox="0 0 1980 1080" width="1980" height="1080" xmlns="http://www.w3.org/2000/svg" xmlns:xlink="http://www.w3.org/1999/xlink" version="1.1"><rect x="0" y="0" width="1980" height="1080" fill="#fafafa"></rect><defs><linearGradient id="grad1_0" x1="45.5%" y1="100%" x2="100%" y2="0%"><stop offset="13.333333333333334%" stop-color="#fafafa" stop-opacity="1"></stop><stop offset="86.66666666666667%" stop-color="#fafafa" stop-opacity="1"></stop></linearGradient></defs><defs><linearGradient id="grad2_0" x1="0%" y1="100%" x2="54.5%" y2="0%"><stop offset="13.333333333333334%" stop-color="#fafafa" stop-opacity="1"></stop><stop offset="86.66666666666667%" stop-color="#fafafa" stop-opacity="1"></stop></linearGradient></defs><g transform="translate(1980, 1080)"><path d="M-270 0C-248.9 -38.8 -227.7 -77.6 -207.8 -120C-188 -162.4 -169.4 -208.2 -135 -233.8C-100.6 -259.4 -50.3 -264.7 0 -270L0 0Z" fill="#6600FF"></path></g><g transform="translate(0, 0)"><path d="M270 0C263.7 48.6 257.4 97.1 233.8 135C210.2 172.9 169.4 200.1 127.5 220.8C85.6 241.6 42.8 255.8 0 270L0 0Z" fill="#6600FF"></path></g></svg>