<svg xmlns="http://www.w3.org/2000/svg" version="1.1" xmlns:xlink="http://www.w3.org/1999/xlink" xmlns:svgjs="http://svgjs.dev/svgjs" width="1920" height="1080" preserveAspectRatio="none" viewBox="0 0 1920 1080"><g mask="url(&quot;#SvgjsMask1515&quot;)" fill="none"><rect width="1920" height="1080" x="0" y="0" fill="url(&quot;#SvgjsLinearGradient1516&quot;)"></rect><path d="M1298.74 674.37a73.44 73.44 0 1 0-90.79-115.47z" stroke="#d3b714"></path><path d="M1348.18 1009.38L1406.98 1009.38L1406.98 1068.18L1348.18 1068.18z" stroke="#e73635"></path><path d="M719.84 344.58L770.62 344.58L770.62 395.36L719.84 395.36z" fill="#037b0b"></path><path d="M930.62 589.2L1009.27 589.2L1009.27 640.02L930.62 640.02z" fill="#037b0b"></path><path d="M1386.87 687.04 a25.83 25.83 0 1 0 51.66 0 a25.83 25.83 0 1 0 -51.66 0z" fill="#d3b714"></path><path d="M1196.28 476.85L1261.46 476.85L1261.46 542.03L1196.28 542.03z" fill="#e73635"></path><path d="M668.33 146.43L738.28 146.43L738.28 202.07L668.33 202.07z" fill="#037b0b"></path><path d="M1127.12 391.07L1170.51 391.07L1170.51 434.46L1127.12 434.46z" fill="#037b0b"></path><path d="M1391.99 807.62L1487.38 807.62L1487.38 901.49L1391.99 901.49z" stroke="#d3b714"></path><path d="M1475.43 955.07L1489.53 955.07L1489.53 969.17L1475.43 969.17z" stroke="#e73635"></path><path d="M288.44 1029.08a67.61 67.61 0 1 0-31.71-131.45z" fill="#037b0b"></path><path d="M955.73 332.82L962.38 332.82L962.38 408.15L955.73 408.15z" stroke="#e73635"></path><path d="M1691.75 1067.83 a0.54 0.54 0 1 0 1.08 0 a0.54 0.54 0 1 0 -1.08 0z" fill="#d3b714"></path><path d="M1523.04 559.16L1540.78 559.16L1540.78 576.9L1523.04 576.9z" stroke="#d3b714"></path><path d="M1514.7 336.14a60.4 60.4 0 1 0 41.84-113.32z" fill="#d3b714"></path><path d="M601.6 169a76.29 76.29 0 1 0-43.08 146.38z" stroke="#d3b714"></path><path d="M1277.07 464.53a49.02 49.02 0 1 0-66.37-72.16z" stroke="#e73635"></path><path d="M632.39 835.56a43.53 43.53 0 1 0-79.3 35.93z" stroke="#037b0b"></path><path d="M938.38 583.73L1030.5 583.73L1030.5 675.85L938.38 675.85z" fill="#e73635"></path><path d="M1495.83 185.01L1502.31 185.01L1502.31 236.4L1495.83 236.4z" fill="#e73635"></path><path d="M49.01 316.45L51.59 316.45L51.59 330.07L49.01 330.07z" fill="#d3b714"></path><path d="M543.13 726.76L628.75 726.76L628.75 812.38L543.13 812.38z" stroke="#037b0b"></path><path d="M1082.73 906.95a84.59 84.59 0 1 0-150.25-77.75z" fill="#e73635"></path></g><defs><mask id="SvgjsMask1515"><rect width="1920" height="1080" fill="#ffffff"></rect></mask><linearGradient x1="50%" y1="0%" x2="50%" y2="100%" gradientUnits="userSpaceOnUse" id="SvgjsLinearGradient1516"><stop stop-color="#0e2a47" offset="0"></stop><stop stop-color="rgba(0, 9, 21, 1)" offset="1"></stop></linearGradient></defs></svg>